<svg width="31" height="30" viewBox="0 0 31 30" fill="none" xmlns="http://www.w3.org/2000/svg">
<path d="M30.5 15C30.5 23.2843 23.7843 30 15.5 30C7.21573 30 0.5 23.2843 0.5 15C0.5 6.71573 7.21573 0 15.5 0C23.7843 0 30.5 6.71573 30.5 15Z" fill="#6396A7"/>
<path d="M7.5 9H10.0455L11.7509 17.9267C11.8091 18.2336 11.9685 18.5093 12.2012 18.7055C12.4338 18.9018 12.725 19.006 13.0236 19H19.2091C19.5077 19.006 19.7989 18.9018 20.0316 18.7055C20.2642 18.5093 20.4236 18.2336 20.4818 17.9267L21.5 12.3333H10.6818M13.2273 22.3333C13.2273 22.7015 12.9424 23 12.5909 23C12.2395 23 11.9545 22.7015 11.9545 22.3333C11.9545 21.9651 12.2395 21.6667 12.5909 21.6667C12.9424 21.6667 13.2273 21.9651 13.2273 22.3333ZM20.2273 22.3333C20.2273 22.7015 19.9424 23 19.5909 23C19.2395 23 18.9545 22.7015 18.9545 22.3333C18.9545 21.9651 19.2395 21.6667 19.5909 21.6667C19.9424 21.6667 20.2273 21.9651 20.2273 22.3333Z" stroke="white" stroke-width="2" stroke-linecap="round" stroke-linejoin="round"/>
</svg>
