<svg width="32" height="32" viewBox="0 0 32 32" fill="none" xmlns="http://www.w3.org/2000/svg">
<path d="M1.33334 1.83334H6.66667L10.24 19.6867C10.3619 20.3005 10.6959 20.852 11.1834 21.2444C11.6709 21.6369 12.2809 21.8453 12.9067 21.8333H25.8667C26.4924 21.8453 27.1024 21.6369 27.5899 21.2444C28.0775 20.852 28.4114 20.3005 28.5333 19.6867L30.6667 8.50001H8M13.3333 28.5C13.3333 29.2364 12.7364 29.8333 12 29.8333C11.2636 29.8333 10.6667 29.2364 10.6667 28.5C10.6667 27.7636 11.2636 27.1667 12 27.1667C12.7364 27.1667 13.3333 27.7636 13.3333 28.5ZM28 28.5C28 29.2364 27.403 29.8333 26.6667 29.8333C25.9303 29.8333 25.3333 29.2364 25.3333 28.5C25.3333 27.7636 25.9303 27.1667 26.6667 27.1667C27.403 27.1667 28 27.7636 28 28.5Z" stroke="#F5F5F5" stroke-width="3" stroke-linecap="round" stroke-linejoin="round"/>
</svg>
