<svg width="18" height="13" viewBox="0 0 18 13" fill="none" xmlns="http://www.w3.org/2000/svg">
<path d="M17.8207 2.73164C17.8207 2.73164 17.6449 1.49063 17.1035 0.945703C16.418 0.228516 15.6516 0.225 15.3 0.182812C12.7828 -1.00583e-07 9.00352 0 9.00352 0H8.99648C8.99648 0 5.21719 -1.00583e-07 2.7 0.182812C2.34844 0.225 1.58203 0.228516 0.896484 0.945703C0.355078 1.49063 0.182812 2.73164 0.182812 2.73164C0.182812 2.73164 0 4.19063 0 5.64609V7.01016C0 8.46562 0.179297 9.92461 0.179297 9.92461C0.179297 9.92461 0.355078 11.1656 0.892969 11.7105C1.57852 12.4277 2.47852 12.4031 2.8793 12.4805C4.3207 12.6176 9 12.6598 9 12.6598C9 12.6598 12.7828 12.6527 15.3 12.4734C15.6516 12.4313 16.418 12.4277 17.1035 11.7105C17.6449 11.1656 17.8207 9.92461 17.8207 9.92461C17.8207 9.92461 18 8.46914 18 7.01016V5.64609C18 4.19063 17.8207 2.73164 17.8207 2.73164ZM7.14023 8.66602V3.60703L12.0023 6.14531L7.14023 8.66602Z" fill="#F5F5F5"/>
</svg>
